<svg xmlns="http://www.w3.org/2000/svg" fill="none" viewBox="0 0 17 18" width="16" height="16" aria-hidden="true" focusable="false"><path fill="url(#a)" d="M16.146 5.695c-.284-.214-.711-.285-1.067-.214-.355.07-.711.284-.924.64-.996 1.565-3.343 1.636-3.343 1.636h-.071c-3.7 0-5.122 3.201-5.193 3.343-.284.712 0 1.565.712 1.85.142.07.355.142.569.142.569 0 1.067-.355 1.351-.853.356-.64.854-1.138 1.566-1.423v2.56c-.071.499-.356.925-.783 1.21-.498.355-1.28.569-2.205.569-1.067 0-1.92-.356-2.56-1.067-.64-.712-.997-1.85-.997-3.272V6.973c.071-1.28.356-2.205.996-2.845.64-.711 1.494-1.067 2.561-1.067.924 0 1.636.214 2.205.57.427.284.712.782.783 1.35v.072a1.61 1.61 0 0 0 1.636 1.636 1.61 1.61 0 0 0 1.636-1.636v-.356a4.394 4.394 0 0 0-.64-1.92c-.355-.57-.783-1.138-1.352-1.494C9.888.431 8.466.004 6.758.004 4.766.004 3.13.715 1.85 1.995.712 3.275.07 4.912 0 6.833v3.912c0 2.134.64 3.912 1.85 5.263C3.059 17.36 4.766 18 6.758 18c1.636 0 3.059-.427 4.196-1.21a4.345 4.345 0 0 0 1.921-3.129l.071-3.485c1.138-.356 2.56-1.068 3.486-2.49.213-.284.355-.712.284-1.067 0-.355-.284-.712-.569-.924Z"></path><path fill="url(#b)" d="M9.744 4.841c0 .925.711 1.707 1.636 1.707a1.61 1.61 0 0 0 1.636-1.636V4.7a4.394 4.394 0 0 0-.64-1.921c-.355-.569-.64-.924-1.352-1.493C9.174-.138 6.756.004 6.756.004 9.175.928 9.744 3.988 9.744 4.84Z"></path><path fill="url(#c)" d="M16.146 5.695c-.284-.214-.711-.285-1.067-.214-.355.071-.712.285-.924.64-.996 1.565-3.343 1.636-3.343 1.636h-.071c-3.7 0-5.122 3.201-5.193 3.343-.284.712 0 1.565.712 1.85.142.07.355.143.569.143.569 0 1.067-.356 1.351-.854 0-.07.57-1.067 1.566-1.422 1.208-.428 1.777-.071 3.272-.57 1.138-.355 2.56-1.066 3.485-2.489.214-.284.356-.712.285-1.067-.07-.427-.355-.783-.64-.996h-.002Z"></path><path fill="url(#d)" d="M16.146 5.695c-.284-.214-.711-.285-1.067-.214-.355.071-.712.285-.924.64-.996 1.565-3.415 1.636-3.415 1.636 2.49-.427 3.557 3.201 5.762 0 .213-.284.355-.712.284-1.067-.07-.427-.355-.783-.64-.996Z"></path><defs><linearGradient id="a" x1="-.001" x2="16.775" y1="9.002" y2="9.002" gradientUnits="userSpaceOnUse"><stop stop-color="#007BFF"></stop><stop offset="1" stop-color="#221377"></stop></linearGradient><linearGradient id="b" x1="9.824" x2="13.376" y1="2.303" y2="7.404" gradientUnits="userSpaceOnUse"><stop stop-color="#007BFF"></stop><stop offset="1" stop-color="#221377"></stop></linearGradient><linearGradient id="c" x1="6.589" x2="15.857" y1="12.068" y2="6.029" gradientUnits="userSpaceOnUse"><stop stop-color="#FC9257"></stop><stop offset="1" stop-color="#F05A24"></stop></linearGradient><linearGradient id="d" x1="15.046" x2="13.001" y1="7.049" y2="8.369" gradientUnits="userSpaceOnUse"><stop stop-color="#FFA44D"></stop><stop offset="1" stop-color="#FBD06A"></stop></linearGradient></defs></svg>